<svg id="Layer_1" data-name="Layer 1" xmlns="http://www.w3.org/2000/svg" viewBox="0 0 721.8 823.09"><defs><style>.cls-1,.cls-2{fill:#323232;}.cls-2{font-size:292.77px;font-family:SFProDisplay-Bold, SF Pro Display;font-weight:700;}.cls-3{letter-spacing:-0.02em;}.cls-4{letter-spacing:-0.01em;}.cls-5{fill:#397ef7;}</style></defs><g id="Light_mode" data-name="Light mode"><circle class="cls-1" cx="358.41" cy="176.08" r="75.01"/><circle class="cls-1" cx="493.82" cy="75.01" r="75.01"/><circle class="cls-1" cx="224.23" cy="75.01" r="75.01"/><text class="cls-2" transform="translate(0 640.26) scale(1.03 1)"><tspan class="cls-3">T</tspan><tspan x="169.68" y="0">ii</tspan><tspan class="cls-4" x="310.64" y="0">m</tspan><tspan class="cls-5" x="559.8" y="0">1</tspan></text><path class="cls-1" d="M7272.9,7147.5c-30.81,45.38-118.25,42.66-148.42,0-47.48,3.82-107.3,127.35-26.48,138,27.3.59,189,1.19,210.3,1.49C7372.61,7271.9,7328.86,7157.94,7272.9,7147.5Z" transform="translate(-6841.07 -6914.51)"/><path class="cls-1" d="M7408.56,7045.06c-23.47,34.55-80.56,44.72-118.71,25.64-4.05-2,6.53,13.95-.56,42-2.59,10.46-8.67,18.45-6.87,19.24,46.1,20.17,58.09,52.7,61.2,52.66,27.31-.4,79-.3,100.34,0C7508.26,7169.45,7464.52,7055.5,7408.56,7045.06Z" transform="translate(-6841.07 -6914.51)"/><path class="cls-1" d="M6989.92,7045.06c23.46,34.55,80.55,44.72,118.7,25.64,4.05-2-6.52,13.95.56,42,2.59,10.47,8.67,18.45,6.87,19.24-46.1,20.17-58.09,52.7-61.2,52.66-27.31-.4-79-.3-100.33,0C6890.21,7169.45,6934,7055.5,6989.92,7045.06Z" transform="translate(-6841.07 -6914.51)"/></g></svg>