<?xml version="1.0" standalone="no"?>
<!DOCTYPE svg PUBLIC "-//W3C//DTD SVG 20010904//EN"
 "http://www.w3.org/TR/2001/REC-SVG-20010904/DTD/svg10.dtd">
<svg version="1.0" xmlns="http://www.w3.org/2000/svg"
 width="512.000000pt" height="512.000000pt" viewBox="0 0 512.000000 512.000000"
 preserveAspectRatio="xMidYMid meet">
<metadata>
Created by potrace 1.14, written by Peter Selinger 2001-2017
</metadata>
<g transform="translate(0.000000,512.000000) scale(0.100000,-0.100000)"
fill="#000000" stroke="none">
<path d="M699 5116 c-2 -2 -22 -7 -44 -10 -38 -6 -92 -20 -125 -33 -8 -4 -17
-7 -20 -7 -10 -3 -115 -56 -135 -68 -120 -77 -226 -194 -284 -313 -18 -38 -37
-77 -41 -85 -4 -8 -16 -47 -26 -85 -18 -68 -19 -136 -19 -1940 0 -1029 3
-1888 7 -1910 12 -62 13 -67 27 -110 74 -230 264 -428 487 -506 144 -50 70
-48 2039 -48 1222 0 1857 3 1890 10 342 70 585 312 651 644 11 58 13 387 11
1935 -2 1747 -3 1869 -20 1924 -24 80 -76 204 -93 221 -8 7 -14 17 -14 21 0
12 -72 97 -124 147 -67 63 -181 134 -264 164 -148 54 -64 52 -2053 53 -1015 0
-1848 -2 -1850 -4z"/>
</g>
</svg>
